<mxfile host="app.diagrams.net" modified="2021-10-08T02:18:30.797Z" agent="5.0 (Windows NT 10.0; Win64; x64) AppleWebKit/537.36 (KHTML, like Gecko) Chrome/94.0.4606.61 Safari/537.36" etag="7B6Ch3FyxnERRchFCVfm" version="14.9.8" type="github">
  <diagram id="6I0OCvxSQrVGMHxT2VVA" name="Page-1">
    <mxGraphModel dx="710" dy="497" grid="0" gridSize="10" guides="1" tooltips="1" connect="1" arrows="1" fold="1" page="1" pageScale="1" pageWidth="850" pageHeight="1100" math="0" shadow="0">
      <root>
        <mxCell id="0" />
        <mxCell id="1" parent="0" />
        <mxCell id="tQ6hdwF7PpaYp36q6wI3-1" value="" style="rounded=1;whiteSpace=wrap;html=1;" vertex="1" parent="1">
          <mxGeometry x="130" y="610" width="530" height="80" as="geometry" />
        </mxCell>
        <mxCell id="tQ6hdwF7PpaYp36q6wI3-2" value="基础设施层" style="text;html=1;strokeColor=none;fillColor=none;align=center;verticalAlign=middle;whiteSpace=wrap;rounded=0;" vertex="1" parent="1">
          <mxGeometry x="150" y="640" width="40" height="20" as="geometry" />
        </mxCell>
        <mxCell id="tQ6hdwF7PpaYp36q6wI3-3" value="" style="rounded=1;whiteSpace=wrap;html=1;" vertex="1" parent="1">
          <mxGeometry x="130" y="510" width="530" height="80" as="geometry" />
        </mxCell>
        <mxCell id="tQ6hdwF7PpaYp36q6wI3-4" value="支撑平台层" style="text;html=1;strokeColor=none;fillColor=none;align=center;verticalAlign=middle;whiteSpace=wrap;rounded=0;" vertex="1" parent="1">
          <mxGeometry x="150" y="540" width="40" height="20" as="geometry" />
        </mxCell>
        <mxCell id="tQ6hdwF7PpaYp36q6wI3-5" value="" style="rounded=1;whiteSpace=wrap;html=1;" vertex="1" parent="1">
          <mxGeometry x="130" y="410" width="530" height="80" as="geometry" />
        </mxCell>
        <mxCell id="tQ6hdwF7PpaYp36q6wI3-6" value="应用平台层" style="text;html=1;strokeColor=none;fillColor=none;align=center;verticalAlign=middle;whiteSpace=wrap;rounded=0;" vertex="1" parent="1">
          <mxGeometry x="150" y="440" width="40" height="20" as="geometry" />
        </mxCell>
        <mxCell id="tQ6hdwF7PpaYp36q6wI3-7" value="校本资源" style="rounded=1;whiteSpace=wrap;html=1;" vertex="1" parent="1">
          <mxGeometry x="240" y="430" width="70" height="40" as="geometry" />
        </mxCell>
        <mxCell id="tQ6hdwF7PpaYp36q6wI3-9" value="教师专业发展" style="rounded=1;whiteSpace=wrap;html=1;" vertex="1" parent="1">
          <mxGeometry x="330" y="430" width="70" height="40" as="geometry" />
        </mxCell>
        <mxCell id="tQ6hdwF7PpaYp36q6wI3-10" value="教务常规系统" style="rounded=1;whiteSpace=wrap;html=1;" vertex="1" parent="1">
          <mxGeometry x="420" y="430" width="70" height="40" as="geometry" />
        </mxCell>
        <mxCell id="tQ6hdwF7PpaYp36q6wI3-11" value="政教管理" style="rounded=1;whiteSpace=wrap;html=1;" vertex="1" parent="1">
          <mxGeometry x="510" y="430" width="70" height="40" as="geometry" />
        </mxCell>
        <mxCell id="tQ6hdwF7PpaYp36q6wI3-12" value="......" style="text;html=1;strokeColor=none;fillColor=none;align=center;verticalAlign=middle;whiteSpace=wrap;rounded=0;" vertex="1" parent="1">
          <mxGeometry x="600" y="440" width="40" height="20" as="geometry" />
        </mxCell>
        <mxCell id="tQ6hdwF7PpaYp36q6wI3-13" value="系统管理" style="rounded=1;whiteSpace=wrap;html=1;" vertex="1" parent="1">
          <mxGeometry x="240" y="530" width="70" height="40" as="geometry" />
        </mxCell>
        <mxCell id="tQ6hdwF7PpaYp36q6wI3-14" value="数据处理" style="rounded=1;whiteSpace=wrap;html=1;" vertex="1" parent="1">
          <mxGeometry x="330" y="530" width="70" height="40" as="geometry" />
        </mxCell>
        <mxCell id="tQ6hdwF7PpaYp36q6wI3-15" value="基本数据" style="rounded=1;whiteSpace=wrap;html=1;" vertex="1" parent="1">
          <mxGeometry x="420" y="530" width="70" height="40" as="geometry" />
        </mxCell>
        <mxCell id="tQ6hdwF7PpaYp36q6wI3-16" value="学校信息库" style="rounded=1;whiteSpace=wrap;html=1;" vertex="1" parent="1">
          <mxGeometry x="510" y="530" width="70" height="40" as="geometry" />
        </mxCell>
        <mxCell id="tQ6hdwF7PpaYp36q6wI3-17" value="......" style="text;html=1;strokeColor=none;fillColor=none;align=center;verticalAlign=middle;whiteSpace=wrap;rounded=0;" vertex="1" parent="1">
          <mxGeometry x="600" y="540" width="40" height="20" as="geometry" />
        </mxCell>
        <mxCell id="tQ6hdwF7PpaYp36q6wI3-18" value="云服务器" style="rounded=1;whiteSpace=wrap;html=1;" vertex="1" parent="1">
          <mxGeometry x="240" y="630" width="70" height="40" as="geometry" />
        </mxCell>
        <mxCell id="tQ6hdwF7PpaYp36q6wI3-19" value="数据库系统" style="rounded=1;whiteSpace=wrap;html=1;" vertex="1" parent="1">
          <mxGeometry x="330" y="630" width="70" height="40" as="geometry" />
        </mxCell>
        <mxCell id="tQ6hdwF7PpaYp36q6wI3-20" value="网络通信系统" style="rounded=1;whiteSpace=wrap;html=1;" vertex="1" parent="1">
          <mxGeometry x="420" y="630" width="70" height="40" as="geometry" />
        </mxCell>
        <mxCell id="tQ6hdwF7PpaYp36q6wI3-21" value="云储存空间" style="rounded=1;whiteSpace=wrap;html=1;" vertex="1" parent="1">
          <mxGeometry x="510" y="630" width="70" height="40" as="geometry" />
        </mxCell>
        <mxCell id="tQ6hdwF7PpaYp36q6wI3-22" value="......" style="text;html=1;strokeColor=none;fillColor=none;align=center;verticalAlign=middle;whiteSpace=wrap;rounded=0;" vertex="1" parent="1">
          <mxGeometry x="600" y="640" width="40" height="20" as="geometry" />
        </mxCell>
      </root>
    </mxGraphModel>
  </diagram>
</mxfile>
